<?xml version="1.0" encoding="utf-8"?>
<!-- Generator: Adobe Illustrator 25.4.1, SVG Export Plug-In . SVG Version: 6.00 Build 0)  -->
<svg version="1.1" id="Layer_1" xmlns="http://www.w3.org/2000/svg" xmlns:xlink="http://www.w3.org/1999/xlink" x="0px" y="0px"
	 viewBox="0 0 465.6 224.4" style="enable-background:new 0 0 465.6 224.4;" xml:space="preserve">
<style type="text/css">
	.st0{fill:url(#SVGID_1_);}
	.st1{opacity:0.24;}
	.st2{fill:#152033;}
	.st3{fill:#2D364A;}
	.st4{fill:#2D3648;}
	.st5{fill:#2D4672;}
	.st6{fill:#415883;}
	.st7{fill:#415881;}
	.st8{fill:#37548C;}
	.st9{fill:none;stroke:#FFFFFF;stroke-miterlimit:10;}
	.st10{fill:#6796C2;}
	.st11{fill:#84AACC;}
	.st12{fill:#3C6298;}
	.st13{fill:#37588A;}
	.st14{fill:#6381AD;}
	.st15{fill:#859ABD;}
	.st16{fill:#8DA3C1;}
	.st17{fill:#A8C2DB;}
	.st18{fill:#608EB7;}
	.st19{fill:none;stroke:#000000;stroke-width:0.75;stroke-miterlimit:10;}
	.st20{fill:#355186;}
	.st21{fill:#9FBDD7;}
	.st22{fill:#213153;}
	.st23{fill:#1F2D4D;}
	.st24{fill:#9CACC6;}
	.st25{fill:#090E17;}
	.st26{fill:#0A0D18;}
	.st27{fill:#090C17;}
	.st28{fill:#4B6597;}
	.st29{fill:#5D75A1;}
	.st30{fill:#456094;}
</style>
<g>
	
		<radialGradient id="SVGID_1_" cx="232.73" cy="55.65" r="166.3777" gradientTransform="matrix(1 0 0 -1 0 226)" gradientUnits="userSpaceOnUse">
		<stop  offset="0" style="stop-color:#FFFFFF"/>
		<stop  offset="1" style="stop-color:#37548C"/>
	</radialGradient>
	<rect x="2.2" y="123" class="st0" width="461" height="94.7"/>
	<g id="reflect-left" class="st1">
		
			<rect x="109.7" y="171.4" transform="matrix(0.8913 -0.4534 0.4534 0.8913 -66.6799 69.885)" class="st2" width="5.4" height="5.2"/>
		<polygon class="st2" points="158.4,160.4 7.4,160 6.4,183.4 7.6,185.3 16.7,185.1 45.8,188.2 63.1,188.3 72.4,169.9 75.3,168.8 
			78.8,174.5 89.9,177.1 111.1,177.5 109.3,173.7 118.2,170.1 132.1,168.2 136.3,170.1 		"/>
		<polygon class="st3" points="122.5,173.1 136.3,170.1 132.1,168.2 118.2,170.1 109.3,173.7 111.7,177.4 		"/>
		<polygon class="st4" points="74.7,183.9 89.9,177.1 78.8,174.5 75.3,168.8 72.4,169.9 63.1,188.3 		"/>
		<path class="st4" d="M0,193c0.4,0,19.3-3.4,19.3-3.4l26.5-1.4L16.7,185l-9.1,0.3l-1.2-1.9l-2.9,2.5L0,193z"/>
	</g>
	<g id="reflect-right-top" class="st1">
		<polygon class="st5" points="427.4,140.4 427.3,156.6 428.2,169.1 438.1,174.9 463.5,173.2 463.5,140.4 		"/>
		<polygon class="st5" points="275.7,140.4 294,147.5 310.2,149.2 320.9,153.3 330.2,153.9 361.3,166.6 378.2,166.5 398,164 
			415.7,164.5 422,163.2 427.3,156.6 427.4,140.4 		"/>
		<polygon class="st6" points="361.3,166.6 363.8,160.7 371.5,154.7 367.9,145.8 331.1,148.9 316,144.2 294,147.5 310.2,149.2 
			320.9,153.3 330.2,153.9 339.2,157.7 344.9,159.8 		"/>
		<polygon class="st7" points="428.2,169.1 415.7,164.5 422,163.2 427.3,156.6 		"/>
	</g>
	<g id="reflect-right-bottom" class="st1">
		<polygon class="st2" points="297.5,186.6 448.5,186.2 449.5,209.5 448.3,211.5 439.2,211.2 410.1,214.4 392.8,214.5 383.5,196.1 
			380.6,194.9 377.1,200.7 366,203.3 344.8,203.7 346.6,199.9 337.7,196.2 323.8,194.4 319.6,196.2 		"/>
		<polygon class="st3" points="333.4,199.2 319.6,196.2 323.8,194.4 337.7,196.2 346.6,199.9 344.2,203.5 		"/>
		<polygon class="st4" points="381.2,210.1 366,203.3 377.1,200.7 380.6,194.9 383.5,196.1 392.8,214.5 		"/>
		<path class="st4" d="M455.9,219.2c-0.4,0-19.3-3.4-19.3-3.4l-26.5-1.4l29.1-3.1l9.1,0.3l1.2-2l2.9,2.5L455.9,219.2z"/>
	</g>
	<path class="st8" d="M44.7,78.8l-10-5.6l-9.8-4.4l-22.2,4L2.5,94.5c8.1,6.9,17.8,11.7,28.2,14c16.8,3.3,34.9,15.3,34.9,15.3h273.1
		l5.7-2.2l-6.7-7l-34.4-0.7l-4.3-6l-14-2.3l-27.6,0.6l-2.2-0.9l-31.6,0.5c0,0-76.9,5.8-90.6,11.6c0,0-42.4-12.3-59.9-12.3
		C73,105.5,44.7,78.8,44.7,78.8z"/>
	<path class="st9" d="M150.3,84"/>
	<polygon class="st10" points="51.8,65.8 3.5,31 3.5,74.9 26.6,70.9 36.9,75.3 	"/>
	<polygon class="st11" points="10.5,63.3 3.4,55 3.4,75.1 11.1,73.6 	"/>
	<polygon class="st12" points="116.4,51.9 111.4,86.3 115.3,101.6 154.1,101.5 223.9,106.2 182.4,68 169.1,47.3 151.6,33.5 126,0 
		125.8,11 108.7,27.5 109.9,35.6 	"/>
	<polygon class="st13" points="150.3,84.2 169.5,68.7 182.4,68 169.1,47.3 164.4,59.1 159,63.5 	"/>
	<polygon class="st14" points="114.7,9.4 93.1,15 85.2,28.4 78.2,46.6 58.5,63.3 49.5,65.3 35.3,74.7 45.3,80.1 62.8,96 
		115.4,101.6 111.5,86.3 116.5,51.9 110,35.6 108.8,27.5 125.9,11 126.2,0 	"/>
	<polygon class="st15" points="74.8,45.4 49.5,65.3 58.5,63.3 78.2,46.6 85.2,28.4 	"/>
	<polygon class="st16" points="108.9,15.8 112.8,13.3 115.1,13.1 126,0 114.6,9.5 93,15.2 	"/>
	<path class="st11" d="M295,104.1l-12.7-18.9l-0.8-11.6l-7-9.6l-1-11.3l12.1-14.5l-1.4-8.5l-10.5,4.9l-13.1,12.6l-0.3,6.5
		c0,0-14,4.9-24.4,14.2s-28.8,22.6-28.8,22.6l16.3,15.3l31.6-0.5l2.3,0.9l27.7-0.6l2.9,0.5L295,104.1z"/>
	<path class="st17" d="M257.6,43.1l-20.4,23.7c7-5.5,14.8-9.9,23.2-13l0.3-6.5l13.1-12.6L257.6,43.1z"/>
	<polygon class="st10" points="322.6,96.5 295,104.1 282.3,85.2 281.5,73.7 274.6,64.1 273.6,52.8 285.7,38.3 284.3,29.8 309.1,53 
		323.4,60 332.6,62.7 346.5,78.1 	"/>
	<path class="st18" d="M304.6,70.9l12.1,0.4c0,0,11.3-4,15.9-8.7l-9.1-2.7C323.5,60,322.8,69.6,304.6,70.9z"/>
	<polygon class="st5" points="427,140.6 427,124.4 427.8,111.8 437.7,106.1 463.1,107.7 463.1,140.5 	"/>
	<polygon class="st5" points="275.3,140.6 293.6,133.4 309.8,131.7 320.5,127.6 329.8,127.1 360.9,114.4 377.8,114.5 397.6,116.9 
		415.3,116.4 421.7,117.8 427,124.4 427,140.6 	"/>
	<polygon class="st6" points="360.9,114.4 363.4,120.3 371,126.3 367.5,135.1 330.7,132.1 315.5,136.8 293.6,133.4 309.8,131.7 
		320.5,127.6 329.8,127.1 338.8,123.3 344.5,121.1 	"/>
	<polygon class="st7" points="428.6,111.1 414.6,116.5 421.7,118.1 427.6,125.8 	"/>
	<polygon class="st2" points="297.4,186.5 448.3,186.9 449.4,163.6 448.2,161.6 439.1,161.9 410,158.7 392.6,158.6 383.4,177 
		380.5,178.2 377,172.4 365.9,169.8 344.6,169.4 346.5,173.2 337.6,176.9 323.6,178.7 319.5,176.9 	"/>
	<polygon class="st3" points="333.3,173.9 319.5,176.9 323.6,178.7 337.6,176.9 346.5,173.2 344.1,169.6 	"/>
	<polygon class="st4" points="381,163 365.9,169.8 377,172.4 380.5,178.2 383.4,177 392.6,158.6 	"/>
	<path class="st4" d="M455.8,153.9c-0.4,0-19.3,3.4-19.3,3.4l-26.5,1.5l29.1,3.1l9.1-0.3l1.2,1.9l2.9-2.5L455.8,153.9z"/>
	<path class="st19" d="M293.1,147"/>
	<polyline class="st20" points="398.1,92 406.3,92.1 416.4,88 410.9,83.4 405.5,88.9 	"/>
	<polygon class="st11" points="463.1,108.1 463.1,49.7 458.9,47.1 454.2,50.7 431.4,81.5 416.4,88.2 437.7,106.4 	"/>
	<polygon class="st21" points="454.1,69.6 442.9,65.8 455,66 463.2,64.1 463.1,68.7 	"/>
	<path class="st22" d="M21.9,160.2l136.6,0.2l-21.7-15.6l-15.8-3.6l-29.6-16.7L74,126.8l-7.7-3.5c0,0-20.2-12.4-34.8-14.8
		S3.3,95,3.3,95l-0.1,64.8L21.9,160.2z"/>
	<polygon class="st23" points="51.5,139 80.1,139.4 91.4,124.5 74,126.8 72.4,133.3 	"/>
	<polygon class="st23" points="81.5,149.5 131.1,149.8 136.8,144.8 120.9,141.2 110,146 	"/>
	<path class="st23" d="M17.2,115l14.2-6.5c-10.1-2.3-19.6-6.7-27.9-12.7L3,120.3L17.2,115z"/>
	<path class="st24" d="M88.2,191.8c0,0-1.5,1.7-1.2,2.9l3.2-1.8l-1.9-1.2"/>
	<path class="st25" d="M3.2,102.4v121.7l460.7,0.2l-0.7-83.8l-14,0.4v1.7l9,5.6c-1.1,1.9-2.8,3.4-4.8,4.3c-1.9,0.9-3.4,2.4-4.3,4.3
		c0,0-1.1,4.3,2.8,4.9c0,0-4.6,2-5.5,6.4s0.5,5.1,0.5,5.1l-2.2,2.6l-6.8-4.7c0,0-1.1-2.9,1.7-6.6c0.3-0.6,0.3-4.5-1.8-6l4.2-5.1
		l-6.3-3.6l3.1-3.6l-1.6-1.2l2.1-4.3l-16.7,0.2l-4.2,5.7l-7.9,5l4.1,4l-4.6,3.4l2.8,2l-6.5,5.9l6.1,5.2l-5,4.6l2.9,2.8L409,188
		l-4.4,2.9l-0.3-2.7l-0.5-1.1l1.6-1.6l-3-2.2l3.8-2.9l-3.8-3l1.6-1.2l-2.7-2.1l2.3-1.5l-4.2-3.3l-2.7-3.1l1-1.4l-2.9-6l-0.4-5.4
		l-0.8,5.1l-1.6,0.5l1.4,2.1l-2.9,0.6l1.5,2.6L388,166l1.1,2.5c0,0-1.5,1.1,1.2,2.6l-3.9,2.1l2.1,2.7c-1,1.9-0.8,4.2,0.5,5.9
		l-2.8,2.8l-0.4-4.3l-2.1-2.1l-1.3-6.3l-2.9,9.5l0.8,1.3l-3,2.7l0.6,1.6c0,0-4.4,2.7-1.5,3.7l-2,2.4l2.1,1.6l-2.2,2.1l0.5,1.3
		l-0.9,0.7l-0.3,2.1l-2-0.9c0.2-0.5,0.4-1,0.7-1.4c0.4-0.4-0.4-1.8-0.4-1.8s0.9-0.7,0.7-1s-1.6-0.8-1.6-0.8l0.7-0.6l0.3-1l0.2-0.7
		l-1.6-0.5l0.1-1.4l-0.5-0.1l-0.5-1l-0.2-2.4l-0.6,3l-0.9,2.4l0.1,0.5l-2.7,2l0.8,1l-0.8,1l0.6,0.4l-1.8,1.4l1.7,1.5l-1.1,0.8
		l0.4,0.6l-0.4,2.2l-1,0.5l-0.3-1.6l0.9-0.8l-1-0.9l-0.1-1.2l-0.8-0.8l-1-3.3l-1.7,4.6l0.5,2l-1.2,0.7c-0.1,0.7-0.1,1.3,0,2h-1.5
		l-0.5-0.8l1.1-0.6l-1.7-1.1l2.5-1.3l-2.8-1.3l1.1-0.3l-1.7-1.1l1.7-0.7l-4.6-2.7l0.2-0.9l-1.5-2.4l-0.7-2.5l-0.4,2.4l-0.9,0.2
		l0.6,0.9l-2.1,0.1l0.9,1.5l-2.4,0.4l1.5,2.6l-1.5,0.3l-2.9-2.4l0.3-1l-1-1.7l0.1-2.9l-1.3,2.8l-0.9,0.8l0.6,1.6l-1.8,0.2l0.9,2.3
		l-1.2,0.9l0.8,1.3c0,0-0.4,1.6-0.3,1.7s0.5,1,0.5,1l-1.6,1.2l0.8-1.3l-0.7-2.7l-1.6-1.4l-0.5-4.1l-2.3,4l0.2,4.6l-1.2,0.6v-2.7
		l0.5-0.3l-1.4-1.2l1.7-1.6l-1.9-1.2l1-0.6l-1.3-1.1l1.4-1.2l-3.8-2.8l0.5-0.5l-1.3-2.9l-0.4-2.8l-1,4l-1.2-0.2l0.6,1.7L325,191
		l1.2,2.7l-1.4,0.8l0.9,1.2l-0.3,2.4l0.5,1c0,0-0.5,1.3-1.3,1.2s-1.5-1.4-1.5-1.4v-1.3l-0.6-1.5v-1.4l-0.8,1.9l-1.3,2l-0.7,4.9
		l-0.7-3l-1.3-3.4l-1.5,5.9l-1,1.2l0.4,1.1c0,0-1.3,0.9-1.7-0.3c-0.2-0.7-0.1-1.5,0.3-2.1l-1.6-4.1l-2,4.1l-0.2,3.9
		c0,0-1.3,1.8-1.5,0c-0.1-0.8,0-1.6,0.1-2.4c-0.1-0.1-1.8-2.5-1.8-2.5l-1.1,1.7v2c0,0-1,2.3-1.6,0c-0.4-1.4-0.5-2.9-0.4-4.4
		l-1.3-0.8l-0.7-2.6l-1.8,2.5v3.3c0,0-0.6,1.6-1.1-0.1c-0.5-1.4-1-2.8-1.7-4.1l-1.1,2.3l-0.3,3.3l-2.1-3.8l-0.5-2.1l-1.2,6.2l-1.3,1
		l-0.7-2l-0.9,2.1l-1.1-3.8l-1.7-1.8l-0.2-2l-1.7,3.1v2.6l-1.5,1.7l-0.4-3.4l-1.4-1.1l-0.4-1.5l-1.3,2.4c-0.1,0.7-0.2,1.4-0.3,2.1
		c-0.1-0.1-1-3-1-3l1.6-0.5l-1.6-0.9l0.3-1.6l-1.7-0.8l-0.9-2.4l-0.5-2.1l-1.3,2.5l-1.2,1.4l0.6,1.6l-0.9,0.2l0.5,0.9
		c0,0-0.6,0.5-0.5,0.6s0.8,1.2,0.8,1.2l-1.6,0.8l-0.7-2.4l-1.2-1.5l-0.5-2.8l-0.9,2.4l-0.5,0.8l0.1,3.4l-1,1v0.7h-1.1l0.8-1.2
		l-1.1-2.7l-1.4-2.3l-0.3-2.6l-1.7,3.8l0.1,3.8c0,0,0.7,1.1-0.6,1.2l-0.9-1.8l-0.3-1.5l-1,2.2l-0.3,2.8l-1.1-3.8l-1.2,3.7l-1.4-5.1
		l-1.2,4.1l-2.9-8.7l-1.4,6.2l-0.8,0.9l0.3,1.6H249l-0.2-1.5l0.2-2.2l-0.7-0.2l-1.4-5.8l-1.8,5.4l-0.1,3.2l-1-1.1l-0.1-2.9l-1-1.2
		l-0.5-1.8l-1.1,2.1v1.8h-1L239,200l-0.8-4.5c0.5-0.3,1.1-0.6,1.5-1c-0.6-0.3-1.1-0.6-1.7-0.9l0.6-0.2l-0.6-0.6l0.6-0.8l-2.4-2.2
		l-1-4.7l-2.3,5l0.6,1.6l-0.9,0.7l0.7,2.9l-1.9,1.5l-2.2-4.4l-0.1-2l-2.7,8.7l-3.3-8.7l-0.6-2.9c0,0-1.8,4.6-1.8,4.8
		s0.1,3.6,0.1,3.6l-1.7,1.7l-1-0.3l-0.2-4.3l-1.4-2.9l-2,8.2l-1-1.1l0.6-1.1l-0.6-0.8l0.2-0.6l-1.4-1l-0.1-2.4l0.5-0.6l-1-0.5
		l0.5-0.9l0.1-1.1l-1.2-0.2l0.2-1l-0.6-0.2l-0.1-0.8l-0.6-0.8l-0.7,3.7l-2.1,2l0.1-1l0.5-0.9v-1.5l-0.6-0.7l1.4-1.1l-2-1.2l1.1-3
		c0,0-1.8-0.4-1.8-0.8c0.2-0.6,0.4-1.2,0.8-1.8l-2-0.1l-0.6-4.6l-1.7,6.6l-3.5,4.4l1.6,1l-1.4,1.3l0.2,0.5l-1.4,2l1.7,1.2l-1.5,1.2
		l-1.5-2.1l0.4-1.2l-0.4-0.9l0.4-0.6l-0.8-0.6l0.4-1.8l-1-0.2v-0.9l-0.7-0.4l-0.7-2.2l-0.5,4.4l-2,1.7l-0.2,2.4l-1.7-1.3l0.5-1.4
		l-0.2-2.1l1.2-1.2l-1.8-1.4l1.2-2.4l-2.1-0.8l0.8-1.4l-1.3-0.2l-0.9-4.2l-1.3,6.1l-3.1,3.4l1.2,1.3l-1.8,1.1l1.1,0.6l-2.5,2
		l-0.7-1.7l1.1-1.4l-0.9-1.6l1.8-1.3c-0.9-0.2-1.9-0.5-2.7-0.8c0.7-0.9,1.4-1.8,2.1-2.6l-2.6-0.3l0.6-1.4l-2.4-0.3
		c0,0,0.8-1.3,0.6-1.3h-0.9l-0.8-2.7l-0.6,3.2l-1.7,2.7l0.4,0.5l-5.5,3.1l2.1,1.3l-1.9,0.7l1.4,0.7l-2.9,1.5l2.4,1.4l-2.1,1.4
		l0.8,0.8l-0.2,2.4L166,193l1.9,0.1l-3.1,1.7l-0.3-1.3l-1.5-0.6l0.2-3l0.6-1.1l-1.3-0.2l0.6-2.1l-1.1-0.2l0.1-1.2l-0.9,0.1v-0.9
		l-0.6-2l-1.2,3.8l0.2,1l-2.1,1.9l0.5,1.2l-1,1.7l0.9,1.7L157,194l-1-1.1l0.6-2.1l-0.6-1.2l1-1.4l-1.5-1.2l0.5-2.6l-1.3-0.3l0.4-1.8
		l-1.8-0.1l0.1-1.2l-1-2.4l-1.4,6.3h0.7l-3.1,3c0,0-2.6,0.3-2.1-2.6c0.2-0.6,0.5-1.2,0.8-1.8c0.3-1.1,0.1-2.3-0.7-3.3l2.1-2.4
		l-3.4-1.8l1.7-1.9l-0.8-0.3l1-2.3l-3.2-1.2l0.9-3.1l-2.5-0.3l0.5-1.7l-0.9-0.4l-0.3-5.2l-1,5.4l-2.2,5.4l0.5,1.1l-2.2,3.1l-4,2.4
		l2.4,1.8l-2.5,1.9l1.9,1.1l-3.5,2.6l3.3,2.9l-2.6,2l1.3,2l-0.5,3.5l-2.7-1.4l0.9-1.2l-0.5-2.3l0.8-1.5l-1.4-1.1l0.6-2.8l-1.7-0.4
		l0.7-1.4l-1.4-0.5l-0.3-1.3l-0.8-2.5c0,0-0.9,5.8-1.4,6.3c-1,1.1-1.9,2.3-2.7,3.5l1.1,1.6l-1.2,0.9l0.5,0.5l-1.5,1.5l1.6,1.5
		c0,0-0.5,1.2-1.3,0.7c-0.8-0.7-1.5-1.4-2.2-2.2l1.2-2.1l-0.5-3l1.5-2.4l-2.7-1.4l1.3-1.6l-0.3-0.8l0.5-1.5l-2.4-1.6l0.8-2.1
		l-2.4-0.3l0.9-1.5l-1.1-0.6l-0.7-4.3l-2.5,9.7l0.7,0.7l-4.9,4.5l1.2,2.2l-1.9,1.5l1.1,1.1l-1.3,1.1l1,3.3l-2.3-2.3l1.5-2.2
		l-1.6-2.4l1.5-1.8l-3-1.8l2.4-1.6l-0.9-0.4l1.3-1.7l-4-1.1c0.5-0.9,1-1.9,1.4-2.9h-4l1.1-1.8l-1.4-0.4l-0.9-4l-0.6,4l-3.4,5.3
		L97,179l-3.4,2.9l-4.9,2l2.4,1.7l-3.2,1.7l2,1l-1.9,0.9l-2.2-1.9l1.7-1.6c0,0-5-2-5.1-3c0-0.6,0-1.1,0-1.7l1.3-1.7
		c0,0,0.3-3.2-1.4-3.6l0.1-0.2l2.2-2.2l-3.5-1.9l2.1-2.1l-1.3-0.4l1.4-3l-3.5-1.4l1.3-2.9l-3.1-0.2l0.6-1.8l-0.8-0.8l-0.6-4.9
		l-1,5.6l-2.6,5.9l1.2,0.9l-2.6,3.2l-4.6,2.9l2.3,2l-2.4,2l1.7,1.2l-3.8,2.8l3.5,3l-2.9,2.1l1.5,2.1l-0.5,3.7l-4.4-3.4
		c0,0,0.5-6.2-1.5-8.3l2.9-3l-5.3-4.4l6.6-5.5l-6.9-5.4l3.2-2l-4.8-3.9l4.3-3.5c0,0-5.1-5.3-8.2-5.6c0,0-2.3-4.7-4.9-5.9l2-1.4
		l-5.5-13.8l-0.5-7.7l-1.1,4.6c0,0,0.7,6.5-2.2,5.3l0.8,4l-5.1,1.3l1.8,5.1l-6.1,2.6l1.9,4.9l-1.4,1.2l3.3,3.3l-6.4,3.3l4.2,5.5
		c-2.2,2-2.6,5.4-0.8,7.8c2.9,4.6-3.1,7.5-6.2,9.1l-2.2-2.5c0,0,4.1-6.3-4.8-11.6c0,0,6.7-1.7,0.1-8l-7-5.1c0,0,9.8-4.8,9.7-7.2
		l-8.3-9.7c0,0,9-4.1-2.1-11.6c0,0-9.3-5-1.5-9.2C10.6,110.4,9.7,105.6,3.2,102.4z"/>
	<path class="st26" d="M427.9,118l0.5,8.3c0,0,0.7,1.7,2.2,1.5l-0.9,3.8l5.5,0.9l-1.8,5.2l5.8,2.9l-16.7,0.2l0.6-0.9l-1.6-1.2
		l5.6-13.4L427.9,118z"/>
	<path class="st27" d="M460.7,110.6c0,0,6.1,0.4,1.9,7l-6.7,4.9c0,0-5.9,6.4,1.3,9l-8,9.4l14-0.4l2.5-29.4l-1.5-5.9
		C464.1,105.3,460.5,109.5,460.7,110.6z"/>
	<polygon class="st28" points="391.2,88.4 378.7,81.8 376.1,75.3 381.3,58.3 355.9,70.8 346.3,77 322.1,96.4 307.7,100.6 
		294.1,104.3 286.9,106.5 298.1,108.3 302.5,114.4 337.5,115.3 344.2,122.4 360.9,115.3 378.2,115.5 398.3,118.1 396.9,100.7 	"/>
	<polygon class="st8" points="397.6,63.3 380.8,58.4 375.7,75.4 378.4,81.8 390.7,88.4 396.4,100.6 397.7,118 415.5,117.5 
		428.1,112.6 438,106.6 411.1,82.7 	"/>
	<polygon class="st20" points="397.8,92 407.4,91.8 416.6,87.5 411.1,82.7 406.6,87.8 	"/>
	<polygon class="st29" points="355.8,71 375.7,75.4 380.8,58.4 	"/>
	<polygon class="st29" points="325.6,103.2 342.5,108.2 330.5,99.6 322.5,96.5 308.3,100.8 312.2,103.4 	"/>
	<path class="st30" d="M114.8,100.9l-53.2-6l11.1,10.2c0,0,36.4,4.1,60.5,12.8c0,0,14.4-6.3,91.5-12l-70.6-5L114.8,100.9z"/>
	<polygon class="st3" points="344,169.7 346.5,173.2 344.6,169.4 344.1,169.6 	"/>
</g>
</svg>
