<?xml version="1.0" encoding="utf-8"?>
<!-- Generator: Adobe Illustrator 25.4.1, SVG Export Plug-In . SVG Version: 6.00 Build 0)  -->
<svg version="1.1" id="Layer_1" xmlns="http://www.w3.org/2000/svg" xmlns:xlink="http://www.w3.org/1999/xlink" x="0px" y="0px"
	 viewBox="0 0 400 400" style="enable-background:new 0 0 400 400;" xml:space="preserve">
<style type="text/css">
	.st0{fill:#355392;}
	.st1{fill:#1A3263;}
	.st2{display:none;enable-background:new    ;}
	.st3{display:inline;fill:#778AB1;}
</style>
<g>
	<path class="st0" d="M264.7,78.4c1.1,0.9,0.7,6.4,0.8,7.6c0.2,6-0.4,12.1-2.2,17.8c-3.4,11-12.5,19.5-21.5,26.1
		c-8.1,5.9-15.7,10.2-21.8,14.2c-24.4,16-45.6,39.9-49.4,69.8c-0.4,3.4-0.6,6.8-0.5,10.2c0.3,9.8,3.4,19.8,10,27.1
		c8.7,9.6,20.7,7,28.9-1.7c4.4-4.7,7.8-10.3,9.3-16.5c1.3-5.7,0.1-7.2-7.2-4.1c-2.5,1.1-5.7,1.7-8.3,1.9c-6.6,0.4-8.9-6.6-8.7-12
		c0.2-6.3,2.4-12.4,5.7-17.7c7.2-11.5,19.1-19.1,29.9-26.9c12.3-8.9,24.7-17.8,35.3-28.8c0.2-0.2,0.4-0.4,0.6-0.7
		c10-10.6,16.3-22.8,13.8-37.7c-1.7-9.9-6.5-21.4-14.1-28.4C264.9,78.6,264.8,78.5,264.7,78.4z"/>
	<path class="st1" d="M180.4,251.7c4.1,4.1,13.1,4.6,18.2,3c6.7-2.1,10.4-8.1,12.2-14.5c3.7-13.2,1.2-28.6-7.4-39.3
		c-8.9-11-20.4-19.4-31.9-27.5c-17.6-12.5-38.9-27.2-46-48.7c-4-12.2-1.2-24.6,5.1-35.5c1.9-3.3,4.6-8.1,7.8-10.2
		c0.9,5.6-0.3,11.8,0.3,17.6c0.6,5.8,2.1,11.5,5.2,16.5c5.4,8.8,15.8,14.6,24,20.7c9.2,6.9,18.5,13.6,27.9,20.3
		c18,12.8,35.4,26.9,40.6,49.5c5.3,22.9-3.1,58.4-32.1,58.2C195.5,261.6,186.6,257.9,180.4,251.7z"/>
	<g>
		<path class="st1" d="M170.6,280.9h-0.1c-0.9-0.2-1.8-0.3-2.7-0.5h-0.1c-6.9-1.7-13.7-3.1-20.2-6c-6.6-3-13.2-6.3-19.5-9.9
			c-12.5-7.2-24.3-15.9-33.8-26.9c-0.8-1-1.7-2-2.5-3c-9.3-11.7-16.5-25.8-21.8-39.7c-5.5-14.3-8.5-29.6-8.7-44.9
			c-0.4-25,8.5-49.3,21.8-70.2c3.2-5.1,6.9-10.4,11.8-14c16.1-12.1,5.4,14.2,2.4,20.3c-12.1,24.4-17.8,52-16.3,79.2
			c0.2,3.7,0.9,9.2,3.7,11.9c4.3,4.2,9.6-0.2,11.3-4.9c1.4-3.7,1.2-7.8,1.3-11.7c0.2-7.5,1.3-15.6,4.2-22.5c0.6-1.5,1.6-2.9,2.9-3.8
			c2.3-1.4,4.9-0.2,6.8,1.3c4.1,3.3,6.5,8.3,7.5,13.5c3.5,18.1-2.4,37.7,0.8,55.8c0,0,0,0.3,0.1,0.8c0,0.2,0.1,0.3,0.1,0.5
			c1.6,7.5,10.9,45.7,43.4,63.7L170.6,280.9z"/>
		<path class="st0" d="M195.9,279.2c0,0-12.4,3-25.3,1.7h-0.1c-0.3,0-1.3-0.2-2.7-0.5h-0.1c-10.5-2.4-45.3-14.8-48.1-75.5
			c0,0,0,0.3,0.1,0.8c0,0.2,0.1,0.3,0.1,0.5c1.6,7.5,10.9,45.7,43.4,63.7C172.2,274.9,183,278.4,195.9,279.2z"/>
	</g>
	<circle class="st1" cx="201.9" cy="117.2" r="20.1"/>
	<g>
		<path class="st1" d="M231.7,281.3h0.1c0.9-0.2,1.8-0.3,2.7-0.5h0.1c6.9-1.7,13.7-3.1,20.2-6c6.6-3,13.2-6.3,19.5-9.9
			c12.5-7.2,24.3-15.9,33.8-26.9c0.8-1,1.7-2,2.5-3c9.3-11.7,16.5-25.8,21.8-39.7c5.5-14.3,8.5-29.6,8.7-44.9
			c0.4-24.9-8.5-49.2-21.9-70.2c-3.2-5.1-6.9-10.4-11.8-14c-16.1-12.1-5.4,14.2-2.4,20.3c12.1,24.4,17.8,52,16.3,79.2
			c-0.2,3.7-0.9,9.2-3.7,11.9c-4.3,4.2-9.6-0.2-11.3-4.9c-1.4-3.7-1.2-7.8-1.3-11.7c-0.2-7.5-1.3-15.6-4.2-22.5
			c-0.6-1.5-1.6-2.9-2.9-3.8c-2.3-1.4-4.9-0.2-6.8,1.3c-4.1,3.3-6.5,8.3-7.5,13.5c-3.5,18.1,2.4,37.7-0.8,55.8c0,0,0,0.3-0.1,0.8
			c0,0.2-0.1,0.3-0.1,0.5c-1.6,7.5-10.9,45.7-43.4,63.7L231.7,281.3z"/>
		<path class="st0" d="M206.4,279.6c0,0,12.4,3,25.3,1.7h0.1c0.3,0,1.3-0.2,2.7-0.5h0.1c10.5-2.4,45.3-14.8,48.1-75.5
			c0,0,0,0.3-0.1,0.8c0,0.2-0.1,0.3-0.1,0.5c-1.6,7.5-10.9,45.7-43.4,63.7C230.1,275.3,219.3,278.7,206.4,279.6z"/>
	</g>
</g>
<g class="st2">
	<path class="st3" d="M44.6,304.1H51l4.5,9.8l4.5-9.8h6.4l-8.1,15.7v7.7h-5.7v-7.7L44.6,304.1z"/>
	<path class="st3" d="M79.8,327.8c-6.6,0-12-5-12-12s5.4-12,12-12c6.7,0,12,4.9,12,12C91.8,322.8,86.5,327.8,79.8,327.8z
		 M79.8,322.6c3.7,0,6.2-2.7,6.2-6.8c0-4.2-2.4-6.8-6.2-6.8c-3.8,0-6.2,2.6-6.2,6.8C73.6,319.9,76,322.6,79.8,322.6z"/>
	<path class="st3" d="M94.9,304.1h5.7v14c0,2.8,1.4,4.4,4.1,4.4s4.1-1.6,4.1-4.4v-14h5.7v14c0,6.5-4.5,9.7-9.9,9.7s-9.7-3.2-9.7-9.7
		C94.9,318.1,94.9,304.1,94.9,304.1z"/>
	<path class="st3" d="M117.2,304.1h18.1v4.6h-6.2v18.8h-5.7v-18.8h-6.2L117.2,304.1L117.2,304.1z"/>
	<path class="st3" d="M152.7,317.9h-8.9v9.6h-5.7v-23.4h5.7v9.2h8.9v-9.2h5.7v23.4h-5.7V317.9z"/>
	<path class="st3" d="M177.1,317.9h-8.9v9.6h-5.7v-23.4h5.7v9.2h8.9v-9.2h5.7v23.4h-5.7V317.9z"/>
	<path class="st3" d="M201.5,323.4h-8.7l-1.4,4.1h-6l8.5-23.4h6.6l8.5,23.4h-6L201.5,323.4z M197.1,310.4l-2.9,8.6h5.8L197.1,310.4z
		"/>
	<path class="st3" d="M222.3,303.8c5.6,0,9.8,3.1,11.1,8.2h-6.3c-1-2-2.7-3-4.9-3c-3.5,0-5.9,2.6-5.9,6.7s2.4,6.7,5.9,6.7
		c2.2,0,3.9-1,4.9-3h6.3c-1.3,5.1-5.5,8.2-11.1,8.2c-6.9,0-11.8-4.9-11.8-11.9C210.5,308.8,215.4,303.8,222.3,303.8z"/>
	<path class="st3" d="M242.6,317.2v10.3h-5.7v-23.4h5.7v10.3l7.8-10.3h6.7l-9.1,11.5l9.4,11.9h-7L242.6,317.2z"/>
	<path class="st3" d="M268.6,327.8c-5,0-9-2.5-9.1-7.2h6.1c0.2,1.8,1.3,2.7,2.9,2.7c1.7,0,2.7-0.8,2.7-2.2c0-4.3-11.7-2-11.6-10.3
		c0-4.4,3.6-6.9,8.5-6.9c5.1,0,8.5,2.5,8.8,7h-6.2c-0.1-1.5-1.2-2.4-2.7-2.4c-1.4,0-2.4,0.7-2.4,2.1c0,4.1,11.6,2.2,11.6,10.1
		C277.1,324.5,274,327.8,268.6,327.8z"/>
	<path class="st3" d="M286.9,323c5.2-4.3,10.7-8.5,10.7-12.6c0-1.8-0.8-2.9-2.5-2.9s-2.7,1.3-2.7,3.6h-5.5c0.2-5.9,4-8.4,8.4-8.4
		c5.5,0,8,3.2,8,7.3c0,5.3-4.8,9.6-8.6,12.6h9v4.6H287L286.9,323L286.9,323z"/>
	<path class="st3" d="M315.5,302.7c6.9,0,9.4,5.2,9.4,12.3c0,7.2-2.4,12.4-9.4,12.4s-9.4-5.2-9.4-12.4
		C306.1,307.9,308.6,302.7,315.5,302.7z M315.5,308c-3.4,0-3.8,3.3-3.8,7c0,3.9,0.4,7.1,3.8,7.1s3.8-3.2,3.8-7.1
		C319.3,311.3,318.9,308,315.5,308z"/>
	<path class="st3" d="M327.7,323c5.2-4.3,10.7-8.5,10.7-12.6c0-1.8-0.8-2.9-2.5-2.9s-2.7,1.3-2.7,3.6h-5.5c0.2-5.9,4-8.4,8.4-8.4
		c5.5,0,8,3.2,8,7.3c0,5.3-4.8,9.6-8.6,12.6h9v4.6h-16.7L327.7,323L327.7,323z"/>
	<path class="st3" d="M346.7,323c5.2-4.3,10.7-8.5,10.7-12.6c0-1.8-0.8-2.9-2.5-2.9s-2.7,1.3-2.7,3.6h-5.5c0.2-5.9,4-8.4,8.4-8.4
		c5.5,0,8,3.2,8,7.3c0,5.3-4.8,9.6-8.6,12.6h9v4.6h-16.7L346.7,323L346.7,323z"/>
</g>
</svg>
